<svg width="24" height="32" viewBox="0 0 24 32" xmlns="http://www.w3.org/2000/svg">
  <!-- Corpo do prédio (fundo branco/cinza claro) -->
  <rect x="2" y="4" width="20" height="26" fill="#F5F5F5" stroke="#95A5A6" stroke-width="1.5"/>
  
  <!-- Janelas em grade 3x5 (15 janelas) - Verde apagado/cinza para não ativado -->
  <!-- Linha 1 -->
  <rect x="4" y="6" width="4" height="4" fill="#95A5A6"/>
  <rect x="10" y="6" width="4" height="4" fill="#95A5A6"/>
  <rect x="16" y="6" width="4" height="4" fill="#95A5A6"/>
  
  <!-- Linha 2 -->
  <rect x="4" y="11" width="4" height="4" fill="#95A5A6"/>
  <rect x="10" y="11" width="4" height="4" fill="#95A5A6"/>
  <rect x="16" y="11" width="4" height="4" fill="#95A5A6"/>
  
  <!-- Linha 3 -->
  <rect x="4" y="16" width="4" height="4" fill="#95A5A6"/>
  <rect x="10" y="16" width="4" height="4" fill="#95A5A6"/>
  <rect x="16" y="16" width="4" height="4" fill="#95A5A6"/>
  
  <!-- Linha 4 -->
  <rect x="4" y="21" width="4" height="4" fill="#95A5A6"/>
  <rect x="10" y="21" width="4" height="4" fill="#95A5A6"/>
  <rect x="16" y="21" width="4" height="4" fill="#95A5A6"/>
  
  <!-- Linha 5 -->
  <rect x="4" y="26" width="4" height="4" fill="#95A5A6"/>
  <rect x="10" y="26" width="4" height="4" fill="#95A5A6"/>
  <rect x="16" y="26" width="4" height="4" fill="#95A5A6"/>
  
  <!-- Entrada arqueada na base -->
  <path d="M 8 30 Q 12 26, 16 30" stroke="#95A5A6" stroke-width="1.5" fill="none"/>
  <line x1="8" y1="30" x2="16" y2="30" stroke="#95A5A6" stroke-width="1.5"/>
</svg>
